<svg width="34" height="34" viewBox="0 0 34 34" fill="none" xmlns="http://www.w3.org/2000/svg">
<path d="M33.9976 17.0006C33.9976 25.5866 27.6333 32.6849 19.3656 33.8368C18.5926 33.944 17.8016 34 16.9988 34C16.0721 34 15.1621 33.9261 14.2759 33.7832C6.18203 32.48 0 25.4616 0 17.0006C0 7.61167 7.61141 0 17 0C26.3886 0 34 7.61167 34 17.0006H33.9976Z" fill="#161817"/>
<path d="M19.365 13.6509V17.3543H23.9462L23.2208 22.343H19.365V33.8368C18.592 33.944 17.8011 33.9999 16.9982 33.9999C16.0715 33.9999 15.1615 33.9261 14.2753 33.7832V22.343H10.0503V17.3543H14.2753V12.8231C14.2753 10.0119 16.5539 7.73193 19.3662 7.73193V7.73432C19.3746 7.73432 19.3817 7.73193 19.39 7.73193H23.9474V12.0464H20.9695C20.0845 12.0464 19.3662 12.7647 19.3662 13.6497L19.365 13.6509Z" fill="white"/>
</svg>
