<svg width="34" height="34" viewBox="0 0 34 34" fill="none" xmlns="http://www.w3.org/2000/svg">
<path d="M33.9976 17.0005C33.9976 25.5865 27.6333 32.6848 19.3656 33.8367C18.5926 33.9439 17.8016 33.9999 16.9988 33.9999C16.0721 33.9999 15.1621 33.926 14.2759 33.7831C6.18203 32.4799 0 25.4615 0 17.0005C0 7.61156 7.61141 -0.000106812 17 -0.000106812C26.3886 -0.000106812 34 7.61156 34 17.0005H33.9976Z" fill="white"/>
<path d="M19.3655 13.6508V17.3542H23.9467L23.2213 22.3429H19.3655V33.8366C18.5925 33.9439 17.8016 33.9998 16.9987 33.9998C16.072 33.9998 15.162 33.926 14.2758 33.7831V22.3429H10.0508V17.3542H14.2758V12.823C14.2758 10.0118 16.5544 7.73183 19.3667 7.73183V7.73421C19.3751 7.73421 19.3822 7.73183 19.3905 7.73183H23.9479V12.0463H20.97C20.085 12.0463 19.3667 12.7646 19.3667 13.6496L19.3655 13.6508Z" fill="#D16537"/>
</svg>
