<svg width="34" height="34" viewBox="0 0 34 34" fill="none" xmlns="http://www.w3.org/2000/svg">
<path d="M17.0387 -6.10352e-05H16.9613C7.59383 -6.10352e-05 0 7.59377 0 16.9612V17.0387C0 26.4061 7.59383 33.9999 16.9613 33.9999H17.0387C26.4062 33.9999 34 26.4061 34 17.0387V16.9612C34 7.59377 26.4062 -6.10352e-05 17.0387 -6.10352e-05Z" fill="white"/>
<path d="M22.2603 6.91687H11.7397C8.83325 6.91687 6.46875 9.28137 6.46875 12.1879V21.8126C6.46875 24.7191 8.83325 27.0836 11.7397 27.0836H22.2603C25.1668 27.0836 27.5313 24.7191 27.5313 21.8126V12.1879C27.5313 9.28137 25.1668 6.91687 22.2603 6.91687ZM8.32819 12.1879C8.32819 10.307 9.85886 8.77631 11.7397 8.77631H22.2603C24.1412 8.77631 25.6718 10.307 25.6718 12.1879V21.8126C25.6718 23.6935 24.1412 25.2242 22.2603 25.2242H11.7397C9.85886 25.2242 8.32819 23.6935 8.32819 21.8126V12.1879Z" fill="#D16537"/>
<path d="M16.9996 21.9022C19.7024 21.9022 21.9025 19.7032 21.9025 16.9992C21.9025 14.2952 19.7036 12.0963 16.9996 12.0963C14.2956 12.0963 12.0967 14.2952 12.0967 16.9992C12.0967 19.7032 14.2956 21.9022 16.9996 21.9022ZM16.9996 13.9569C18.678 13.9569 20.0431 15.322 20.0431 17.0004C20.0431 18.6788 18.678 20.0439 16.9996 20.0439C15.3212 20.0439 13.9561 18.6788 13.9561 17.0004C13.9561 15.322 15.3212 13.9569 16.9996 13.9569Z" fill="#D16537"/>
<path d="M22.3572 12.8888C23.085 12.8888 23.6782 12.2967 23.6782 11.5677C23.6782 10.8387 23.0862 10.2467 22.3572 10.2467C21.6281 10.2467 21.0361 10.8387 21.0361 11.5677C21.0361 12.2967 21.6281 12.8888 22.3572 12.8888Z" fill="#D16537"/>
</svg>
