<svg width="34" height="34" viewBox="0 0 34 34" fill="none" xmlns="http://www.w3.org/2000/svg">
<path d="M17.0387 0H16.9613C7.59383 0 0 7.59383 0 16.9613V17.0387C0 26.4062 7.59383 34 16.9613 34H17.0387C26.4062 34 34 26.4062 34 17.0387V16.9613C34 7.59383 26.4062 0 17.0387 0Z" fill="#161817"/>
<path d="M22.2618 6.91711H11.7412C8.83472 6.91711 6.47021 9.28162 6.47021 12.1881V21.8129C6.47021 24.7194 8.83472 27.0839 11.7412 27.0839H22.2618C25.1682 27.0839 27.5328 24.7194 27.5328 21.8129V12.1881C27.5328 9.28162 25.1682 6.91711 22.2618 6.91711ZM8.32966 12.1881C8.32966 10.3072 9.86033 8.77655 11.7412 8.77655H22.2618C24.1426 8.77655 25.6733 10.3072 25.6733 12.1881V21.8129C25.6733 23.6938 24.1426 25.2244 22.2618 25.2244H11.7412C9.86033 25.2244 8.32966 23.6938 8.32966 21.8129V12.1881Z" fill="white"/>
<path d="M17.0011 21.9024C19.7039 21.9024 21.904 19.7035 21.904 16.9995C21.904 14.2955 19.7051 12.0966 17.0011 12.0966C14.2971 12.0966 12.0981 14.2955 12.0981 16.9995C12.0981 19.7035 14.2971 21.9024 17.0011 21.9024ZM17.0011 13.9572C18.6794 13.9572 20.0445 15.3223 20.0445 17.0007C20.0445 18.679 18.6794 20.0441 17.0011 20.0441C15.3227 20.0441 13.9576 18.679 13.9576 17.0007C13.9576 15.3223 15.3227 13.9572 17.0011 13.9572Z" fill="white"/>
<path d="M22.3581 12.8889C23.0859 12.8889 23.6792 12.2969 23.6792 11.5679C23.6792 10.8388 23.0871 10.2468 22.3581 10.2468C21.6291 10.2468 21.0371 10.8388 21.0371 11.5679C21.0371 12.2969 21.6291 12.8889 22.3581 12.8889Z" fill="white"/>
</svg>
