<svg width="34" height="34" viewBox="0 0 34 34" fill="none" xmlns="http://www.w3.org/2000/svg">
<path d="M17.0387 9.15527e-05H16.9613C7.59384 9.15527e-05 0 7.59392 0 16.9614V17.0388C0 26.4063 7.59384 34.0001 16.9613 34.0001H17.0387C26.4062 34.0001 34 26.4063 34 17.0388V16.9614C34 7.59392 26.4062 9.15527e-05 17.0387 9.15527e-05Z" fill="white"/>
<path d="M11.8233 12.4837V25.2294H7.7959V12.4837H11.8233Z" fill="#D16537"/>
<path d="M25.2471 13.9144C26.125 14.8673 26.5633 16.1753 26.5633 17.8405V25.1758H22.7385V18.3575C22.7385 17.5177 22.5205 16.8649 22.0857 16.4004C21.6509 15.9358 21.0649 15.7023 20.3311 15.7023C19.5973 15.7023 19.0112 15.9346 18.5764 16.4004C18.1417 16.8649 17.9237 17.5177 17.9237 18.3575V25.1758H14.0762V12.6196H17.9237V14.2848C18.3132 13.7297 18.8385 13.2914 19.4984 12.9686C20.1584 12.6458 20.9005 12.485 21.726 12.485C23.1959 12.485 24.3704 12.9614 25.2471 13.9132V13.9144Z" fill="#D16537"/>
<circle cx="9.91014" cy="9.35847" r="2.14646" fill="#D16537"/>
</svg>
