<svg width="34" height="34" viewBox="0 0 34 34" fill="none" xmlns="http://www.w3.org/2000/svg">
<path d="M17.0387 0H16.9613C7.59384 0 0 7.59383 0 16.9613V17.0387C0 26.4062 7.59384 34 16.9613 34H17.0387C26.4062 34 34 26.4062 34 17.0387V16.9613C34 7.59383 26.4062 0 17.0387 0Z" fill="#161817"/>
<path d="M11.8238 12.4836V25.2293H7.79639V12.4836H11.8238Z" fill="white"/>
<path d="M25.2471 13.9143C26.125 14.8672 26.5633 16.1752 26.5633 17.8404V25.1758H22.7385V18.3574C22.7385 17.5176 22.5205 16.8648 22.0857 16.4003C21.6509 15.9357 21.0649 15.7023 20.3311 15.7023C19.5973 15.7023 19.0112 15.9345 18.5764 16.4003C18.1417 16.8648 17.9237 17.5176 17.9237 18.3574V25.1758H14.0762V12.6195H17.9237V14.2847C18.3132 13.7296 18.8385 13.2913 19.4984 12.9685C20.1584 12.6457 20.9005 12.4849 21.726 12.4849C23.1959 12.4849 24.3704 12.9613 25.2471 13.9131V13.9143Z" fill="white"/>
<circle cx="9.91111" cy="9.35856" r="2.14646" fill="white"/>
</svg>
