<svg width="238" height="21" viewBox="0 0 238 21" fill="none" xmlns="http://www.w3.org/2000/svg">
<path d="M136.635 3.84723C140.393 3.50201 143.725 6.20355 144.075 9.87983C144.425 13.5563 141.661 16.8135 137.903 17.1537C134.148 17.4934 130.822 14.7928 130.472 11.12C130.122 7.44722 132.88 4.19207 136.635 3.84723Z" fill="white"/>
<path d="M138.156 5.15651C138.489 5.13729 138.808 5.28119 139.067 5.47575C139.764 5.99786 140.193 6.93309 140.303 7.76674C140.901 7.84863 141.433 8.04035 141.899 8.42378C142.465 8.89063 142.914 9.58415 142.973 10.3189C143.029 11.0052 142.767 11.6474 142.311 12.1621C141.805 12.7335 141.128 13.0746 140.356 13.1264C140.34 13.3247 140.294 13.5232 140.241 13.7149C140.047 14.4224 139.587 15.189 138.918 15.5581C138.667 15.6963 138.393 15.7603 138.112 15.6751C137.688 15.5467 137.461 15.2172 137.262 14.8565C137.049 15.1886 136.873 15.4404 136.519 15.6389C136.454 15.6666 136.383 15.6887 136.314 15.7018C136.023 15.7564 135.716 15.6197 135.485 15.4566C134.721 14.9179 134.327 14.0333 134.179 13.1524C133.626 13.0982 133.157 12.952 132.706 12.6253C132.111 12.194 131.684 11.5715 131.575 10.8481C131.477 10.2004 131.68 9.54751 132.081 9.02894C132.604 8.35224 133.375 7.87779 134.236 7.76487C134.246 7.6035 134.265 7.44586 134.303 7.28819C134.481 6.54864 134.953 5.75664 135.632 5.35678C135.886 5.20676 136.179 5.11986 136.475 5.19956C136.83 5.29543 137.059 5.56685 137.231 5.86666C137.247 5.83914 137.264 5.8125 137.282 5.78629C137.511 5.45527 137.739 5.23577 138.156 5.15651Z" fill="white"/>
<path d="M140.16 8.34081C140.403 8.31964 140.632 8.34518 140.83 8.49776C141.001 8.63025 141.101 8.82842 141.127 9.03862C141.157 9.29115 141.082 9.545 140.919 9.74297C140.491 10.262 139.255 10.2829 138.607 10.339L137.68 10.4126C137.961 10.0684 138.32 9.75823 138.646 9.45613C138.988 9.1403 139.343 8.78387 139.736 8.52914C139.872 8.44095 140.003 8.38381 140.16 8.34081Z" fill="white"/>
<path d="M134.125 8.34821C134.142 8.34733 134.158 8.34668 134.175 8.34647C134.36 8.34341 134.508 8.38619 134.67 8.47174C135.104 8.702 135.496 9.11192 135.853 9.44258L136.927 10.441C136.73 10.4139 136.532 10.3962 136.334 10.3766C135.69 10.3475 134.414 10.2834 133.88 9.96536C133.661 9.83461 133.499 9.64037 133.446 9.39154C133.397 9.1652 133.435 8.84086 133.572 8.64637C133.706 8.45517 133.903 8.3875 134.125 8.34821Z" fill="white"/>
<path d="M137.051 10.8669C137.053 10.8763 137.056 10.8857 137.057 10.8951C137.083 11.1019 137.05 11.346 137.049 11.5565C137.044 12.3009 137.135 13.3202 136.649 13.9451C136.504 14.1312 136.292 14.2781 136.05 14.3043C135.827 14.3285 135.643 14.2445 135.472 14.113C135.338 13.9715 135.25 13.8235 135.217 13.6311C135.179 13.3983 135.212 13.1594 135.313 12.945C135.446 12.6609 135.676 12.4255 135.885 12.1935C136.263 11.7727 136.7 11.3519 137.031 10.8958L137.051 10.8669Z" fill="white"/>
<path d="M137.505 10.9312C137.982 11.4856 139.228 12.5221 139.328 13.22C139.371 13.5272 139.278 13.793 139.089 14.0345C138.949 14.1755 138.775 14.2795 138.569 14.2897C138.352 14.3004 138.142 14.2011 137.988 14.0554C137.459 13.5521 137.524 12.6025 137.519 11.94C137.517 11.6037 137.512 11.2674 137.505 10.9312Z" fill="white"/>
<path d="M138.367 6.7738C138.4 6.76943 138.433 6.76574 138.466 6.76311C138.663 6.7476 138.861 6.80089 139.011 6.92993C139.178 7.0712 139.28 7.27297 139.291 7.48893C139.326 8.13024 138.369 9.11615 137.958 9.5782C137.805 9.76031 137.65 9.94066 137.491 10.1188C137.492 9.3974 137.398 7.98872 137.695 7.38149C137.839 7.0854 138.048 6.8821 138.367 6.7738Z" fill="white"/>
<path d="M135.896 6.77381C135.916 6.77228 135.936 6.77143 135.956 6.7712C136.192 6.76815 136.398 6.84696 136.565 7.01227C137.067 7.51143 137.02 8.42726 137.027 9.07492L137.036 10.1162C136.934 9.99438 136.828 9.87712 136.719 9.76096C136.323 9.34194 135.468 8.40302 135.307 7.88437C135.233 7.64854 135.225 7.3531 135.354 7.13365C135.471 6.93452 135.675 6.82818 135.896 6.77381Z" fill="white"/>
<path d="M137.731 10.7024C138.396 10.7312 140.275 10.7899 140.778 11.1869C140.965 11.3349 141.079 11.539 141.102 11.7736C141.124 12.0137 141.04 12.2017 140.888 12.385C140.762 12.5038 140.637 12.5777 140.46 12.595C140.28 12.6127 140.104 12.5601 139.944 12.483C139.229 12.1382 138.361 11.2319 137.731 10.7024Z" fill="white"/>
<path d="M136.429 10.7093L136.745 10.6969C136.184 11.188 135.253 12.2165 134.59 12.4935C134.331 12.6019 134.098 12.6203 133.835 12.5194C133.799 12.4983 133.763 12.4764 133.73 12.4518C133.559 12.3247 133.447 12.1516 133.426 11.9406C133.404 11.7121 133.457 11.4859 133.612 11.3089C133.726 11.178 133.88 11.0883 134.045 11.0293C134.591 10.8338 135.81 10.7582 136.429 10.7093Z" fill="white"/>
<path d="M10.318 20.9998C9.0266 20.9998 7.76157 20.7807 6.52288 20.3424C5.28418 19.8913 4.17724 19.2274 3.20211 18.3509C2.22699 17.4744 1.44952 16.3851 0.869712 15.0832C0.289897 13.7684 0 12.2474 0 10.5201C0 8.9088 0.303086 7.45861 0.909288 6.16957C1.52863 4.88053 2.35881 3.7784 3.39984 2.86318C4.45405 1.94796 5.64007 1.24548 6.95777 0.755593C8.28871 0.278654 9.67897 0.0401799 11.1285 0.0401799C12.4331 0.0401799 13.5598 0.162635 14.5086 0.407555C15.4574 0.652475 16.2414 0.961838 16.8608 1.33566C17.4933 1.70948 17.9809 2.07041 18.3235 2.41846V5.02874C17.915 4.5518 17.3813 4.08133 16.7224 3.61728C16.0767 3.15322 15.2926 2.76653 14.3702 2.45718C13.4609 2.13493 12.4133 1.9738 11.2273 1.9738C10.0413 1.9738 8.89493 2.16715 7.78798 2.55386C6.6942 2.92768 5.71908 3.48195 4.86253 4.21671C4.00599 4.95146 3.32735 5.8538 2.82662 6.92366C2.32587 7.98064 2.07549 9.18589 2.07549 10.5394C2.07549 12.3956 2.47082 13.9553 3.26144 15.2186C4.06524 16.4947 5.09969 17.455 6.36472 18.0995C7.62975 18.7569 8.96727 19.0857 10.3773 19.0857C11.6687 19.0857 12.8152 18.8407 13.8166 18.3509C14.8182 17.8482 15.6154 17.1457 16.2084 16.2433C16.7882 15.341 17.0781 14.2776 17.0781 13.053V11.8735H9.74452V9.97867H19.0942V12.879C19.0942 14.4902 18.7054 15.9082 17.928 17.1328C17.1637 18.3574 16.116 19.3048 14.7851 19.9751C13.4542 20.6582 11.9652 20.9998 10.318 20.9998ZM26.9215 0.272434H28.9377V18.8731H39.1571V20.768H26.9216L26.9215 0.272434ZM54.1599 19.047C55.6885 19.047 57.0788 18.6861 58.3306 17.9642C59.5693 17.2294 60.5643 16.2176 61.3153 14.9286C62.0533 13.6395 62.4223 12.17 62.4223 10.5201C62.4223 8.8444 62.0533 7.36845 61.3153 6.09229C60.5642 4.80325 59.5693 3.7978 58.3306 3.076C57.0788 2.34124 55.6885 1.97386 54.1599 1.97386C52.6313 1.97386 51.2344 2.34124 49.9694 3.076C48.7176 3.79787 47.7226 4.80325 46.9847 6.09229C46.2468 7.36845 45.8778 8.8444 45.8778 10.5201C45.8778 12.1701 46.2467 13.6395 46.9847 14.9286C47.7227 16.2176 48.7176 17.2295 49.9694 17.9642C51.2344 18.6861 52.6313 19.047 54.1599 19.047ZM43.8022 10.5202C43.8022 8.99917 44.0723 7.60058 44.6126 6.32442C45.1397 5.04827 45.871 3.9397 46.8067 2.99871C47.7423 2.07061 48.8426 1.34229 50.1077 0.813768C51.3595 0.29816 52.7102 0.0403765 54.1597 0.0403765C55.6093 0.0403765 56.96 0.298181 58.2118 0.813768C59.4505 1.34226 60.5442 2.07054 61.493 2.99871C62.4418 3.9397 63.1798 5.04827 63.7068 6.32442C64.2471 7.60058 64.5172 8.99917 64.5172 10.5202C64.5172 12.0284 64.2471 13.427 63.7068 14.716C63.1797 15.9922 62.4418 17.0943 61.493 18.0224C60.5442 18.9634 59.4505 19.6917 58.2118 20.2073C56.96 20.7358 55.6093 21 54.1597 21C52.7102 21 51.3595 20.7358 50.1077 20.2073C48.8426 19.6917 47.7423 18.9634 46.8067 18.0224C45.871 17.0943 45.1397 15.9922 44.6126 14.716C44.0723 13.427 43.8022 12.0284 43.8022 10.5202ZM79.3025 20.768H72.3447V0.272434H78.9071C80.8311 0.272434 82.386 0.736493 83.572 1.6646C84.758 2.57982 85.351 3.84953 85.351 5.47367C85.351 6.724 85.0216 7.7037 84.3627 8.41269C83.7039 9.12169 82.933 9.61794 82.0501 9.90152C82.7221 10.0175 83.3942 10.2689 84.0662 10.6556C84.7383 11.0294 85.2983 11.5708 85.7464 12.2798C86.2076 12.9759 86.4382 13.8524 86.4382 14.9094C86.4382 16.1727 86.1351 17.2361 85.5289 18.0997C84.9228 18.9634 84.086 19.6272 83.0186 20.0913C81.9513 20.5424 80.7125 20.768 79.3025 20.768ZM74.3609 11.0426V18.8731H79.2431C80.719 18.8731 81.9379 18.538 82.8999 17.8677C83.8619 17.1974 84.3428 16.2048 84.3428 14.89C84.3428 13.5881 83.8684 12.6214 82.9196 11.9897C81.9577 11.3581 80.7453 11.0423 79.2826 11.0423L74.3609 11.0426ZM74.3609 2.16729V9.16669H78.7292C80.1656 9.16669 81.2791 8.86377 82.0698 8.25791C82.8604 7.65205 83.2557 6.76908 83.2557 5.60899C83.2557 4.5133 82.8538 3.66255 82.0499 3.05675C81.2461 2.46379 80.1326 2.16729 78.7094 2.16729H74.3609ZM93.9299 20.768H91.7556L101.619 0.00195312L111.423 20.768H109.189L106.422 14.8514H96.6969L93.9299 20.768ZM101.599 4.52654L97.6064 12.9761H105.552L101.599 4.52654ZM118.262 0.272729H120.278V18.8734H130.478V20.7683H118.262L118.262 0.272729Z" fill="white"/>
<path d="M159.864 20.7276H157.848V0.000218377L167.949 11.1761L177.851 0.000218377V20.7276H175.835V5.04647L167.948 14.057L159.864 5.00782L159.864 20.7276ZM186.766 0.232058H188.782V20.7276H186.766V0.232058ZM203.211 2.12691H195.818V0.232058H212.64V2.12691H205.247V20.7276H203.211L203.211 2.12691ZM227.643 19.0066C229.171 19.0066 230.562 18.6457 231.813 17.9238C233.065 17.1891 234.06 16.1772 234.798 14.8882C235.549 13.5992 235.925 12.1297 235.925 10.4798C235.925 8.80403 235.549 7.32807 234.798 6.05191C234.06 4.76288 233.065 3.75742 231.813 3.03562C230.562 2.30087 229.171 1.93348 227.643 1.93348C226.114 1.93348 224.724 2.30087 223.472 3.03562C222.207 3.75749 221.212 4.76288 220.487 6.05191C219.749 7.32807 219.38 8.80403 219.38 10.4798C219.38 12.1297 219.749 13.5992 220.487 14.8882C221.212 16.1772 222.207 17.1891 223.472 17.9238C224.724 18.6457 226.114 19.0066 227.643 19.0066ZM217.285 10.4798C217.285 8.9588 217.555 7.56021 218.095 6.28405C218.622 5.00789 219.354 3.89932 220.289 2.95834C221.225 2.03023 222.325 1.30192 223.59 0.773392C224.842 0.257783 226.193 0 227.643 0C229.092 0 230.443 0.257805 231.695 0.773392C232.946 1.30189 234.04 2.03016 234.976 2.95834C235.925 3.89932 236.669 5.00789 237.209 6.28405C237.737 7.56021 238 8.9588 238 10.4798C238 11.988 237.737 13.3866 237.209 14.6756C236.669 15.9518 235.925 17.0539 234.976 17.982C234.04 18.923 232.946 19.6513 231.695 20.1669C230.443 20.6954 229.092 20.9597 227.643 20.9597C226.193 20.9597 224.842 20.6954 223.59 20.1669C222.325 19.6513 221.225 18.9231 220.289 17.982C219.354 17.0539 218.622 15.9518 218.095 14.6756C217.555 13.3866 217.285 11.988 217.285 10.4798Z" fill="white"/>
</svg>
