<svg width="175" height="16" viewBox="0 0 175 16" fill="none" xmlns="http://www.w3.org/2000/svg">
<path d="M100.466 2.93109C103.229 2.66807 105.679 4.72641 105.936 7.52742C106.194 10.3286 104.162 12.8103 101.398 13.0695C98.6371 13.3283 96.1912 11.2707 95.9341 8.47232C95.6768 5.67398 97.7049 3.19383 100.466 2.93109Z" fill="#FA5424"/>
<path d="M101.584 3.9288C101.83 3.91416 102.064 4.0238 102.255 4.17204C102.767 4.56984 103.083 5.28241 103.163 5.91758C103.603 5.97997 103.994 6.12604 104.337 6.41819C104.753 6.77389 105.083 7.30229 105.127 7.86211C105.168 8.38502 104.975 8.8743 104.64 9.26647C104.268 9.70186 103.77 9.96171 103.202 10.0012C103.19 10.1523 103.157 10.3035 103.118 10.4496C102.975 10.9886 102.637 11.5727 102.145 11.8539C101.961 11.9592 101.759 12.008 101.552 11.9431C101.241 11.8453 101.074 11.5942 100.928 11.3194C100.771 11.5724 100.641 11.7642 100.381 11.9155C100.333 11.9366 100.281 11.9534 100.23 11.9634C100.016 12.005 99.7905 11.9008 99.6205 11.7766C99.0587 11.3661 98.7694 10.6921 98.6605 10.021C98.2536 9.97973 97.9092 9.86827 97.5775 9.61937C97.1396 9.29079 96.8259 8.8165 96.7455 8.2653C96.6734 7.77184 96.8226 7.27438 97.1176 6.87926C97.5023 6.36368 98.0694 6.00219 98.7023 5.91616C98.7097 5.79321 98.7238 5.6731 98.7517 5.55296C98.8825 4.98949 99.2295 4.38606 99.7285 4.08139C99.9159 3.96709 100.131 3.90088 100.348 3.96161C100.61 4.03465 100.778 4.24145 100.904 4.46988C100.916 4.44891 100.929 4.42861 100.942 4.40865C101.111 4.15643 101.278 3.9892 101.584 3.9288Z" fill="#FA5424"/>
<path d="M103.058 6.35527C103.237 6.33913 103.405 6.3586 103.551 6.4749C103.677 6.57589 103.75 6.72694 103.769 6.88716C103.791 7.07965 103.736 7.27315 103.617 7.42405C103.301 7.81968 102.392 7.83564 101.916 7.8784L101.234 7.93446C101.441 7.6721 101.705 7.43568 101.945 7.20541C102.196 6.96467 102.457 6.69299 102.746 6.49881C102.846 6.4316 102.943 6.38804 103.058 6.35527Z" fill="#FA5424"/>
<path d="M98.6208 6.36058C98.633 6.35991 98.6451 6.35941 98.6573 6.35925C98.7935 6.35692 98.9023 6.38952 99.0213 6.45474C99.3408 6.63025 99.6284 6.9427 99.8911 7.19475L100.681 7.95576C100.536 7.93512 100.39 7.92164 100.245 7.90667C99.7715 7.88455 98.8334 7.83563 98.4406 7.59323C98.2791 7.49357 98.1603 7.34551 98.1212 7.15585C98.0856 6.98331 98.1135 6.73609 98.2138 6.58784C98.3123 6.4421 98.4577 6.39052 98.6208 6.36058Z" fill="#FA5424"/>
<path d="M100.772 8.27979C100.774 8.28694 100.776 8.2941 100.776 8.30126C100.795 8.45881 100.771 8.6448 100.77 8.80519C100.767 9.37237 100.834 10.149 100.476 10.6251C100.37 10.7668 100.214 10.8788 100.036 10.8988C99.8717 10.9172 99.737 10.8532 99.6108 10.753C99.5121 10.6452 99.4478 10.5324 99.4235 10.3858C99.3953 10.2085 99.4199 10.0265 99.4942 9.86311C99.592 9.64667 99.7611 9.4673 99.9146 9.29047C100.192 8.96987 100.514 8.64931 100.757 8.30174L100.772 8.27979Z" fill="#FA5424"/>
<path d="M101.105 8.32862C101.457 8.75104 102.373 9.54078 102.446 10.0725C102.478 10.3066 102.409 10.5091 102.271 10.6931C102.167 10.8006 102.039 10.8797 101.888 10.8876C101.728 10.8957 101.574 10.82 101.461 10.7091C101.072 10.3256 101.119 9.60201 101.116 9.09725C101.114 8.84105 101.111 8.58484 101.105 8.32862Z" fill="#FA5424"/>
<path d="M101.74 5.16126C101.764 5.15793 101.788 5.15511 101.812 5.15311C101.958 5.1413 102.103 5.1819 102.213 5.28021C102.336 5.38785 102.411 5.54158 102.419 5.70612C102.445 6.19475 101.741 6.94593 101.439 7.29797C101.326 7.43672 101.212 7.57414 101.096 7.7099C101.097 7.16022 101.027 6.08693 101.245 5.62426C101.351 5.39867 101.505 5.24377 101.74 5.16126Z" fill="#FA5424"/>
<path d="M99.9229 5.16099C99.9377 5.15982 99.9526 5.15917 99.9676 5.159C100.141 5.15667 100.293 5.21672 100.415 5.34267C100.784 5.72299 100.75 6.42077 100.755 6.91424L100.761 7.70763C100.686 7.61479 100.609 7.52545 100.529 7.43695C100.237 7.11768 99.6089 6.4023 99.4901 6.00714C99.4361 5.82746 99.43 5.60236 99.5251 5.43516C99.6111 5.28343 99.7609 5.20241 99.9229 5.16099Z" fill="#FA5424"/>
<path d="M101.273 8.1543C101.762 8.17626 103.144 8.22101 103.513 8.52364C103.651 8.63644 103.735 8.79199 103.752 8.97085C103.768 9.15385 103.706 9.29711 103.594 9.43685C103.502 9.52736 103.41 9.58375 103.28 9.5969C103.147 9.61037 103.018 9.57028 102.901 9.51155C102.374 9.2487 101.736 8.55791 101.273 8.1543Z" fill="#FA5424"/>
<path d="M100.315 8.15987L100.547 8.15039C100.135 8.52473 99.4503 9.30869 98.963 9.51979C98.7723 9.60248 98.6011 9.61646 98.4076 9.53959C98.3813 9.52345 98.355 9.50682 98.3306 9.48801C98.2044 9.39118 98.1225 9.25925 98.1072 9.09837C98.0905 8.92419 98.1299 8.75182 98.2436 8.6169C98.3278 8.51708 98.441 8.4487 98.5618 8.40379C98.9633 8.25472 99.8597 8.19714 100.315 8.15987Z" fill="#FA5424"/>
<path d="M7.5868 15.9998C6.63722 15.9998 5.70705 15.8329 4.79624 15.4989C3.88543 15.1552 3.0715 14.6494 2.3545 13.9816C1.63749 13.3137 1.06583 12.4838 0.639495 11.4919C0.21316 10.4901 0 9.33121 0 8.01513C0 6.78748 0.222858 5.68256 0.668595 4.70042C1.124 3.71829 1.73442 2.87855 2.49989 2.18123C3.27504 1.48391 4.14712 0.94868 5.11601 0.57543C6.09465 0.212043 7.1169 0.0303463 8.18273 0.0303463C9.142 0.0303463 9.97045 0.123646 10.6681 0.310255C11.3657 0.496863 11.9422 0.732572 12.3977 1.01739C12.8628 1.30221 13.2213 1.57721 13.4732 1.8424V3.83121C13.1728 3.46782 12.7804 3.10936 12.2959 2.75579C11.8211 2.40222 11.2446 2.10759 10.5663 1.8719C9.89773 1.62637 9.12748 1.5036 8.2554 1.5036C7.38332 1.5036 6.5404 1.65092 5.72646 1.94556C4.92221 2.23038 4.20521 2.65269 3.5754 3.21251C2.94558 3.77233 2.44658 4.45983 2.0784 5.27497C1.7102 6.0803 1.5261 6.9986 1.5261 8.02986C1.5261 9.44413 1.81678 10.6325 2.39812 11.595C2.98915 12.5673 3.74978 13.299 4.67995 13.79C5.61012 14.2909 6.59359 14.5414 7.63037 14.5414C8.57996 14.5414 9.42294 14.3548 10.1593 13.9816C10.8957 13.5985 11.4819 13.0633 11.9179 12.3758C12.3443 11.6883 12.5574 10.878 12.5574 9.94501V9.04634H7.1651V7.60263H14.0398V9.81242C14.0398 11.0401 13.754 12.1204 13.1823 13.0535C12.6204 13.9865 11.85 14.7083 10.8714 15.219C9.89278 15.7396 8.79797 15.9998 7.5868 15.9998ZM19.7952 0.207304H21.2777V14.3795H28.792V15.8232H19.7953L19.7952 0.207304ZM39.8235 14.5119C40.9475 14.5119 41.9697 14.2369 42.8902 13.6869C43.801 13.1271 44.5326 12.3561 45.0849 11.374C45.6275 10.3919 45.8988 9.27227 45.8988 8.01519C45.8988 6.73842 45.6275 5.61387 45.0849 4.64154C44.5326 3.6594 43.801 2.89333 42.8902 2.34338C41.9697 1.78356 40.9475 1.50365 39.8235 1.50365C38.6995 1.50365 37.6724 1.78356 36.7423 2.34338C35.8218 2.89339 35.0902 3.6594 34.5476 4.64154C34.005 5.61387 33.7337 6.73842 33.7337 8.01519C33.7337 9.27233 34.005 10.3919 34.5476 11.374C35.0903 12.3562 35.8218 13.1272 36.7423 13.6869C37.6724 14.2369 38.6995 14.5119 39.8235 14.5119ZM32.2076 8.01523C32.2076 6.85634 32.4062 5.79073 32.8034 4.81841C33.191 3.84608 33.7288 3.00145 34.4167 2.2845C35.1047 1.57736 35.9137 1.02245 36.8439 0.619755C37.7644 0.226905 38.7576 0.030496 39.8234 0.030496C40.8892 0.030496 41.8824 0.226921 42.8029 0.619755C43.7137 1.02242 44.5179 1.57731 45.2155 2.2845C45.9132 3.00145 46.4558 3.84608 46.8433 4.81841C47.2406 5.79073 47.4392 6.85634 47.4392 8.01523C47.4392 9.16432 47.2406 10.2299 46.8433 11.2121C46.4557 12.1844 45.9132 13.0241 45.2155 13.7313C44.5179 14.4482 43.7137 15.0031 42.8029 15.396C41.8824 15.7987 40.8892 16 39.8234 16C38.7576 16 37.7644 15.7986 36.8439 15.396C35.9138 15.0031 35.1047 14.4483 34.4167 13.7313C33.7288 13.0241 33.191 12.1844 32.8034 11.2121C32.4062 10.2299 32.2076 9.16432 32.2076 8.01523ZM58.3107 15.8232H53.1947V0.207304H58.02C59.4347 0.207304 60.578 0.560878 61.4501 1.26801C62.3221 1.96534 62.7582 2.93275 62.7582 4.17021C62.7582 5.12285 62.516 5.8693 62.0315 6.40949C61.5471 6.94968 60.9802 7.32779 60.331 7.54385C60.8252 7.63225 61.3193 7.82376 61.8135 8.11839C62.3077 8.40322 62.7195 8.81571 63.0489 9.3559C63.388 9.88625 63.5576 10.5541 63.5576 11.3594C63.5576 12.3219 63.3348 13.1322 62.889 13.7902C62.4433 14.4482 61.828 14.954 61.0432 15.3076C60.2584 15.6513 59.3475 15.8232 58.3107 15.8232ZM54.6772 8.41324V14.3795H58.2671C59.3523 14.3795 60.2486 14.1241 60.9559 13.6134C61.6632 13.1027 62.0169 12.3464 62.0169 11.3447C62.0169 10.3527 61.6681 9.61613 60.9704 9.13488C60.2631 8.65363 59.3717 8.41302 58.2961 8.41302L54.6772 8.41324ZM54.6772 1.65102V6.98398H57.8892C58.9454 6.98398 59.7641 6.75318 60.3455 6.29156C60.9268 5.82994 61.2175 5.1572 61.2175 4.27331C61.2175 3.43848 60.922 2.79029 60.3309 2.32871C59.7399 1.87693 58.9211 1.65102 57.8747 1.65102H54.6772ZM69.0662 15.8232H67.4675L74.7198 0.0012207L81.9286 15.8232H80.2862L78.2514 11.3152H71.1007L69.0662 15.8232ZM74.7054 3.44857L71.7695 9.88639H77.6121L74.7054 3.44857ZM86.9575 0.207529H88.4399V14.3797H95.9397V15.8234H86.9575L86.9575 0.207529Z" fill="#FA5424"/>
<path d="M117.547 15.7927H116.064V0.000166384L123.492 8.51523L130.773 0.000166384V15.7927H129.291V3.84498L123.492 10.7102L117.547 3.81554L117.547 15.7927ZM137.328 0.176808H138.81V15.7927H137.328V0.176808ZM149.42 1.62053H143.984V0.176808H156.353V1.62053H150.917V15.7927H149.42L149.42 1.62053ZM167.384 14.4814C168.508 14.4814 169.531 14.2065 170.451 13.6564C171.372 13.0966 172.103 12.3256 172.646 11.3435C173.198 10.3614 173.474 9.24178 173.474 7.98469C173.474 6.70792 173.198 5.58337 172.646 4.61104C172.103 3.62891 171.372 2.86284 170.451 2.31289C169.531 1.75306 168.508 1.47315 167.384 1.47315C166.26 1.47315 165.238 1.75306 164.318 2.31289C163.388 2.86289 162.656 3.62891 162.123 4.61104C161.58 5.58337 161.309 6.70792 161.309 7.98469C161.309 9.24183 161.58 10.3614 162.123 11.3435C162.656 12.3257 163.388 13.0967 164.318 13.6564C165.238 14.2064 166.26 14.4814 167.384 14.4814ZM159.768 7.98474C159.768 6.82584 159.967 5.76024 160.364 4.78791C160.752 3.81559 161.29 2.97095 161.978 2.254C162.666 1.54687 163.475 0.99195 164.405 0.589259C165.325 0.196409 166.318 0 167.384 0C168.45 0 169.443 0.196425 170.364 0.589259C171.284 0.991928 172.089 1.54681 172.776 2.254C173.474 2.97095 174.022 3.81559 174.419 4.78791C174.806 5.76024 175 6.82584 175 7.98474C175 9.13382 174.806 10.1994 174.419 11.1816C174.022 12.1539 173.474 12.9936 172.776 13.7008C172.088 14.4177 171.284 14.9726 170.364 15.3655C169.443 15.7682 168.45 15.9695 167.384 15.9695C166.318 15.9695 165.325 15.7682 164.405 15.3655C163.475 14.9727 162.666 14.4178 161.978 13.7008C161.29 12.9936 160.752 12.1539 160.364 11.1816C159.967 10.1994 159.768 9.13382 159.768 7.98474Z" fill="#FA5424"/>
</svg>
